<svg width="24" height="23" viewBox="0 0 24 23" fill="none" xmlns="http://www.w3.org/2000/svg">
<g filter="url(#filter0_dd_1002_2687)">
<path d="M20.35 7.92309L19.9838 7.71936C19.9269 7.68773 19.8984 7.67185 19.871 7.6554C19.5979 7.49181 19.3679 7.26539 19.1999 6.99498C19.183 6.96777 19.1664 6.93965 19.1338 6.88326L19.1337 6.88304C19.1012 6.82672 19.0848 6.7984 19.0697 6.77014C18.919 6.48882 18.8379 6.17557 18.8331 5.85647C18.8326 5.82768 18.8331 5.79822 18.834 5.74538L18.8343 5.72633L18.8414 5.30933C18.8529 4.6233 18.8586 4.28033 18.7626 3.97278C18.6776 3.7007 18.5357 3.44986 18.3459 3.23718C18.1317 2.9972 17.8348 2.8261 17.2424 2.4847L17.2393 2.48293L16.7455 2.19837C16.1526 1.85674 15.8561 1.68599 15.5414 1.62085C15.2629 1.56322 14.9754 1.56553 14.698 1.62781C14.3851 1.69803 14.0926 1.87319 13.5086 2.22291L13.5041 2.22559L13.1503 2.43745C13.0943 2.47095 13.066 2.48766 13.038 2.50325C12.7597 2.65797 12.4485 2.74406 12.1303 2.75427C12.0982 2.7553 12.0656 2.7553 12.0004 2.7553H11.9995C11.9347 2.7553 11.9025 2.7553 11.8705 2.75427C11.5516 2.74402 11.2394 2.65754 10.9607 2.50218C10.9336 2.48709 10.9067 2.47094 10.8546 2.43967L10.8486 2.43606L10.4925 2.22229L10.4899 2.22068C9.9023 1.86794 9.60823 1.6914 9.29382 1.62085C9.01525 1.55835 8.72629 1.55625 8.44683 1.61463C8.13092 1.68061 7.83353 1.85319 7.239 2.19824L6.75134 2.48128C6.1599 2.82454 5.8646 2.9961 5.65124 3.23625C5.46248 3.44871 5.32109 3.69897 5.23664 3.97034C5.14119 4.27707 5.14657 4.619 5.15807 5.30274L5.16522 5.7274C5.1663 5.7917 5.16702 5.82388 5.16655 5.85551C5.16182 6.17525 5.0804 6.48918 4.92929 6.771C4.91434 6.79887 4.89824 6.82674 4.86608 6.88241C4.8339 6.93812 4.81783 6.96591 4.80114 6.9928C4.63242 7.26465 4.40094 7.49214 4.12613 7.65601C4.09895 7.67222 4.07104 7.6878 4.01476 7.719L3.65319 7.91936L3.65307 7.91943C3.05158 8.25276 2.7509 8.41939 2.5321 8.65678C2.33853 8.86681 2.19195 9.11589 2.10269 9.38721C2.00192 9.69351 2.0027 10.0369 2.00426 10.7229L2.00427 10.7256L2.00554 11.2877L2.00556 11.2938C2.0071 11.9729 2.00787 12.3134 2.1087 12.6171C2.19816 12.8866 2.344 13.1339 2.53649 13.3427C2.75383 13.5784 3.05212 13.7443 3.64782 14.0757L3.64977 14.0768L4.00811 14.2761L4.01309 14.2789C4.07079 14.311 4.10054 14.3275 4.12914 14.3448C4.40145 14.5087 4.63043 14.7353 4.79772 15.0056C4.81579 15.0348 4.83314 15.0651 4.86781 15.1257L4.86784 15.1257C4.9021 15.1856 4.91943 15.2155 4.93528 15.2455C5.08195 15.5232 5.16121 15.8315 5.16657 16.1455C5.16715 16.1794 5.16661 16.214 5.16544 16.283L5.15856 16.6905L5.15854 16.692C5.14697 17.3771 5.14119 17.7198 5.23713 18.0271C5.32208 18.2992 5.46438 18.55 5.65417 18.7627C5.86869 19.0031 6.1656 19.1745 6.76013 19.5171L7.25383 19.8016C7.84668 20.1432 8.14354 20.314 8.45828 20.3791C8.73673 20.4367 9.02419 20.4344 9.30163 20.3721C9.61457 20.3018 9.90718 20.1266 10.4917 19.7766L10.4955 19.7744L10.8493 19.5625C10.9053 19.529 10.9334 19.5123 10.9615 19.4967C11.2398 19.342 11.5508 19.2559 11.869 19.2457C11.9011 19.2446 11.9337 19.2446 11.9989 19.2446C12.0643 19.2446 12.0975 19.2446 12.1296 19.2457C12.4485 19.2559 12.7602 19.3423 13.0389 19.4977C13.067 19.5133 13.0952 19.5302 13.1512 19.5638L13.5073 19.7776L13.508 19.778C14.0969 20.1316 14.3913 20.3083 14.7061 20.379C14.9847 20.4415 15.2731 20.4437 15.5526 20.3853C15.8685 20.3193 16.1661 20.1468 16.7606 19.8017L17.2483 19.5187C17.8397 19.1754 18.1351 19.0038 18.3484 18.7637C18.5372 18.5512 18.6786 18.301 18.7631 18.0296C18.8585 17.7229 18.853 17.381 18.8415 16.6972L18.8343 16.2726L18.834 16.2511C18.8331 16.2007 18.8326 16.1724 18.833 16.1445C18.8378 15.8248 18.9191 15.5108 19.0702 15.229C19.0851 15.2011 19.1012 15.1733 19.1333 15.1178L19.1334 15.1176C19.1656 15.0619 19.1819 15.034 19.1986 15.0071C19.3674 14.7352 19.5986 14.5079 19.8734 14.344C19.8997 14.3283 19.9271 14.3132 19.9797 14.284L19.9852 14.2809L20.3468 14.0806C20.9484 13.7472 21.2489 13.5806 21.4677 13.3431C21.6613 13.1331 21.8076 12.8841 21.8968 12.6128C21.9977 12.3061 21.9973 11.9622 21.9958 11.2744L21.9945 10.7123C21.993 10.0291 21.9921 9.68744 21.891 9.38281C21.8015 9.11332 21.6556 8.86601 21.4631 8.65725C21.2455 8.42128 20.947 8.25521 20.35 7.92309Z" stroke="#0B0B0B" stroke-width="1.2" stroke-linecap="round" stroke-linejoin="round" shape-rendering="crispEdges"/>
</g>
<defs>
<filter id="filter0_dd_1002_2687" x="-2.59619" y="0.972359" width="29.1924" height="28.0552" filterUnits="userSpaceOnUse" color-interpolation-filters="sRGB">
<feFlood flood-opacity="0" result="BackgroundImageFix"/>
<feColorMatrix in="SourceAlpha" type="matrix" values="0 0 0 0 0 0 0 0 0 0 0 0 0 0 0 0 0 0 127 0" result="hardAlpha"/>
<feOffset dy="4"/>
<feGaussianBlur stdDeviation="2"/>
<feComposite in2="hardAlpha" operator="out"/>
<feColorMatrix type="matrix" values="0 0 0 0 0 0 0 0 0 0 0 0 0 0 0 0 0 0 0.25 0"/>
<feBlend mode="normal" in2="BackgroundImageFix" result="effect1_dropShadow_1002_2687"/>
<feColorMatrix in="SourceAlpha" type="matrix" values="0 0 0 0 0 0 0 0 0 0 0 0 0 0 0 0 0 0 127 0" result="hardAlpha"/>
<feOffset dy="4"/>
<feGaussianBlur stdDeviation="2"/>
<feComposite in2="hardAlpha" operator="out"/>
<feColorMatrix type="matrix" values="0 0 0 0 0 0 0 0 0 0 0 0 0 0 0 0 0 0 0.25 0"/>
<feBlend mode="normal" in2="effect1_dropShadow_1002_2687" result="effect2_dropShadow_1002_2687"/>
<feBlend mode="normal" in="SourceGraphic" in2="effect2_dropShadow_1002_2687" result="shape"/>
</filter>
</defs>
</svg>
